# xmcd
#
# Track frame offsets:
#	150
#	9570
#	33475
#	47377
#	69440
#	89915
#	108032
#	119804
#	141811
#	161404
#
# Disc length: 2382 seconds
#
# Revision: 0
# Processed by: cddbd v1.5.2PL0 Copyright (c) Steve Scherf et al.
# Submitted via: EZCDAudioConverter 2.1.7.1
#
DISCID=82094c0a
DTITLE=V/A - Africa Airways 1/2
DYEAR=1900
DGENRE=
TTITLE0=Ekambi Brillant - Africa Africa
TTITLE1=Tala A.M. - Black Gold
TTITLE2=Kemayo - Kag Am
TTITLE3=Jo Tongo - Jangolo
TTITLE4=Manu Dibango - Mimbo
TTITLE5=Jo Bisso - Give It Up
TTITLE6=M'Bamina - Mbongui
TTITLE7=Jake Sollo - Father Time, Mother Nature
TTITLE8=Sookie - Choco Date
TTITLE9=African Souls Band - Nande
EXTD=
EXTT0=
EXTT1=
EXTT2=
EXTT3=
EXTT4=
EXTT5=
EXTT6=
EXTT7=
EXTT8=
EXTT9=
PLAYORDER=
